<svg xmlns="http://www.w3.org/2000/svg" width="41.494" height="24.205" viewBox="0 0 41.494 24.205">
  <g id="hand-shake" transform="translate(0 -106.666)">
    <g id="Group_145" data-name="Group 145" transform="translate(0 106.666)">
      <g id="Group_144" data-name="Group 144" transform="translate(0 0)">
        <path id="Path_21" data-name="Path 21" d="M10.028,108.568c-1.383-1.383-7.261-1.729-9.163-1.9a.635.635,0,0,0-.519.173A1.311,1.311,0,0,0,0,107.53v15.56a.817.817,0,0,0,.864.864H6.051a.951.951,0,0,0,.864-.519c0-.519,3.112-9.682,3.458-14.177A.691.691,0,0,0,10.028,108.568Z" transform="translate(0 -106.666)" fill="#e5a812"/>
      </g>
    </g>
    <g id="Group_147" data-name="Group 147" transform="translate(14.674 110.297)">
      <g id="Group_146" data-name="Group 146" transform="translate(0 0)">
        <path id="Path_22" data-name="Path 22" d="M194.915,153.887c-1.729-.519-3.285-1.21-4.668-1.729-3.112-1.383-4.5-.692-7.261,2.075-1.21,1.21-2.075,2.939-1.9,3.631,0,.173,0,.173.346.346.864.346,2.075.519,3.285-1.383a.9.9,0,0,1,.692-.346,3.2,3.2,0,0,0,1.21-.346,8.429,8.429,0,0,1,1.21-.519h.346c.173,0,.519.173.692.173.865.865,2.421,2.075,3.977,3.458a39.6,39.6,0,0,1,6.051,5.533h.173C197.854,161.321,195.779,155.443,194.915,153.887Z" transform="translate(-181.061 -151.467)" fill="#e5a812"/>
      </g>
    </g>
    <g id="Group_149" data-name="Group 149" transform="translate(29.392 108.395)">
      <g id="Group_148" data-name="Group 148" transform="translate(0 0)">
        <path id="Path_23" data-name="Path 23" d="M373.9,128a30.319,30.319,0,0,0-10.719,1.729l-.519.519a1.04,1.04,0,0,0,.173.692,97.368,97.368,0,0,1,5.014,13.658,1.149,1.149,0,0,0,.865.692H373.9a.817.817,0,0,0,.864-.864v-15.56A.817.817,0,0,0,373.9,128Z" transform="translate(-362.666 -128)" fill="#e5a812"/>
      </g>
    </g>
    <g id="Group_151" data-name="Group 151" transform="translate(8.99 111.853)">
      <g id="Group_150" data-name="Group 150" transform="translate(0 0)">
        <path id="Path_24" data-name="Path 24" d="M133.237,184.153c-.692-1.556-3.631-3.8-6.224-5.878-1.383-1.21-2.766-2.248-3.8-3.112-.173.173-.519.173-.519.346a3.258,3.258,0,0,1-1.383.346c-1.383,1.729-3.112,2.42-5.014,1.729a2.044,2.044,0,0,1-1.556-1.556c-.346-1.729,1.21-4.149,2.421-5.36H113.7a88.151,88.151,0,0,1-2.766,10.373,19.545,19.545,0,0,0,1.9,1.9c3.285,2.766,7.089,5.533,7.78,6.051a4.914,4.914,0,0,0,2.075.692h.519l-2.766-2.766a.856.856,0,0,1,1.21-1.21l3.458,3.458c.346.346.692.173,1.037.173.519-.173.692-.519.864-1.037l-3.977-3.977a.856.856,0,0,1,1.21-1.21l4.322,4.322a1.849,1.849,0,0,0,1.383,0c.173-.173.519-.346.692-.692L125.8,181.9a.856.856,0,0,1,1.21-1.21l5.014,5.014a1.143,1.143,0,0,0,1.037-.173A1.174,1.174,0,0,0,133.237,184.153Z" transform="translate(-110.934 -170.667)" fill="#e5a812"/>
      </g>
    </g>
  </g>
</svg>
