<svg id="mo3awlat" xmlns="http://www.w3.org/2000/svg" width="63.039" height="63.039" viewBox="0 0 63.039 63.039">
  <path id="Path_1" data-name="Path 1" d="M5.253,60.938V55.5A5.169,5.169,0,0,1,2.1,50.431c0-2.9,1.885-5.253,4.2-5.253s4.2,2.357,4.2,5.253A5.169,5.169,0,0,1,7.355,55.5v5.44h5.253V28.367a1.051,1.051,0,0,1,.581-.94l7.824-3.912V17.861a1.051,1.051,0,0,1,.762-1.011l13.947-3.985V1.051A1.051,1.051,0,0,1,36.773,0H57.786a1.051,1.051,0,0,1,1.051,1.051V60.938h4.2v2.1H0v-2.1Zm32.57,0H56.735v-2.1H47.279v-2.1h9.456v-4.2H47.279v-2.1h9.456v-4.2H47.279v-2.1h9.456v-4.2H47.279v-2.1h9.456v-4.2H47.279v-2.1h9.456v-4.2H47.279v-2.1h9.456v-4.2H47.279v-2.1h9.456v-4.2H47.279v-2.1h9.456v-4.2H47.279V6.3h9.456V2.1H37.823Zm-14.709,0H35.722v-2.1H28.367v-2.1h7.355v-4.2H28.367v-2.1h7.355v-4.2H28.367v-2.1h7.355v-4.2H28.367v-2.1h7.355v-4.2H28.367v-2.1h7.355v-4.2H28.367v-2.1h7.355v-4.2H28.367v-2.1h7.355v-3.86l-12.608,3.6Zm-8.405,0h6.3v-2.1H17.861v-2.1h3.152v-4.2H17.861v-2.1h3.152v-4.2H17.861v-2.1h3.152v-4.2H17.861v-2.1h3.152v-4.2H17.861v-2.1h3.152V25.865l-6.3,3.152ZM7.355,53.131a3.671,3.671,0,0,0,1.051-2.7c0-1.708-.962-3.152-2.1-3.152s-2.1,1.444-2.1,3.152a3.678,3.678,0,0,0,1.051,2.7v-1.65h2.1Z" fill="#e5a812"/>
</svg>
