<svg xmlns="http://www.w3.org/2000/svg" width="63.174" height="63.174" viewBox="0 0 63.174 63.174">
  <g id="model" transform="translate(0)">
    <path id="Path_2" data-name="Path 2" d="M339.057,86.114A3.057,3.057,0,1,0,336,83.057,3.061,3.061,0,0,0,339.057,86.114Zm0-4.076a1.019,1.019,0,1,1-1.019,1.019A1.021,1.021,0,0,1,339.057,82.038Zm0,0" transform="translate(-293.204 -69.811)" fill="#e5a812"/>
    <path id="Path_3" data-name="Path 3" d="M54.9,22.417l-2.59-6.151a7.1,7.1,0,0,0-3.4-9.454V2.038A2.04,2.04,0,0,0,46.871,0H44.833A2.04,2.04,0,0,0,42.8,2.038V6.812a7.1,7.1,0,0,0-3.4,9.454l-2.59,6.151H31.587V0H19.36V22.417H17.322V8.861L12.227,1.219,7.133,8.861V22.417H0V54.426l8.749,8.749H63.174V22.417Zm2.053,10.13a1.413,1.413,0,0,1,.112.553v.112a1.431,1.431,0,0,1-2.749.557L48.463,19.877a7.159,7.159,0,0,0,2.466-1.628ZM57.061,42.8V52.985H44.833V42.8ZM45.852,20.379c.2,0,.4-.013.6-.03l2.317,5.5a7.216,7.216,0,0,1-5.83,0l2.317-5.5c.2.017.4.03.6.03ZM44.833,2.038h2.038V6.2a6.4,6.4,0,0,0-2.038,0Zm1.019,6.114a5.095,5.095,0,1,1-5.095,5.095A5.1,5.1,0,0,1,45.852,8.152ZM43.242,19.877,37.392,33.77a1.43,1.43,0,0,1-2.748-.556V33.1a1.424,1.424,0,0,1,.112-.554l6.02-14.3a7.162,7.162,0,0,0,2.466,1.627ZM6.114,40.758h9.17v6.114h5.095v2.038H6.114Zm11.208,4.076V38.72H6.114V36.682h6.114V35.663a3.061,3.061,0,0,1,3.057-3.057H16.3V28.53h2.038V37.7H30.568V28.53h3.667l-1.357,3.224a3.44,3.44,0,0,0-.272,1.346v.112a3.47,3.47,0,0,0,2.038,3.151v2.922a4.031,4.031,0,0,0-2.038-.567A4.076,4.076,0,1,0,36.682,42.8V36.623a3.448,3.448,0,0,0,2.038-1.168V48.909h-16.3V44.833ZM6.114,34.644V28.53h8.152v2.141a5.107,5.107,0,0,0-3.973,3.973ZM20.379,28.53H28.53v7.133H20.379ZM34.644,42.8a2.038,2.038,0,1,1-2.038-2.038A2.04,2.04,0,0,1,34.644,42.8ZM21.4,2.038h8.152V4.076H25.474V6.114h4.076V8.152H27.511v2.038h2.038v2.038H25.474v2.038h4.076V16.3H27.511v2.038h2.038v4.076H21.4ZM13.246,22.417V10.189h2.038V22.417ZM14.4,8.152H10.056l2.171-3.257ZM9.171,10.189h2.038V22.417H9.171ZM8.152,59.7,3.479,55.023H8.152Zm52.985,1.441H10.189V52.985H2.038V24.455H35.952l-.858,2.038H4.076V50.947H40.758V31.028l1.387-3.293a9.04,9.04,0,0,0,7.416,0l2.873,6.825a3.455,3.455,0,0,0,2.589,2.063v4.135H42.8V55.023H59.1V40.758H57.061V36.364A3.47,3.47,0,0,0,59.1,33.213V33.1a3.44,3.44,0,0,0-.272-1.346l-3.073-7.3h5.383Zm0,0" fill="#e5a812"/>
    <path id="Path_4" data-name="Path 4" d="M96,422.114h22.417V416H96Zm12.227-2.038h-2.038v-2.038h2.038Zm2.038-2.038H112.3v2.038h-2.038Zm-6.114,2.038h-2.038v-2.038h2.038Zm12.227,0h-2.038v-2.038h2.038Zm-18.341-2.038h2.038v2.038H98.038Zm0,0" transform="translate(-83.773 -363.015)" fill="#e5a812"/>
    <path id="Path_5" data-name="Path 5" d="M288,448h22.417v2.038H288Zm0,0" transform="translate(-251.318 -390.939)" fill="#e5a812"/>
  </g>
</svg>
