<svg xmlns="http://www.w3.org/2000/svg" width="38" height="43.527" viewBox="0 0 38 43.527">
  <g id="product" transform="translate(0)">
    <path id="Path_19" data-name="Path 19" d="M122.564,23.039h15.3a1.274,1.274,0,0,0,1.275-1.275V6.376A1.274,1.274,0,0,0,137.867,5.1h-3.826V3.826a3.826,3.826,0,0,0-7.651,0V5.1h-3.826a1.275,1.275,0,0,0-1.275,1.275V21.764A1.275,1.275,0,0,0,122.564,23.039ZM128.94,3.826a1.275,1.275,0,1,1,2.55,0V5.1h-2.55Zm0,0" transform="translate(-110.978)" fill="#e5a812"/>
    <path id="Path_20" data-name="Path 20" d="M37.815,241.615A1.275,1.275,0,0,0,36.724,241a6.042,6.042,0,0,0-5.351,3.237L27.461,251.7a3.818,3.818,0,0,1-3.39,2.05h-8.66a1.275,1.275,0,0,1,0-2.55h8.66a1.274,1.274,0,0,0,1.131-.684l1.462-2.79a1.111,1.111,0,0,0-.986-1.627H12.423a6.335,6.335,0,0,0-4.508,1.868L.373,255.51a1.275,1.275,0,0,0,0,1.8l6.376,6.351a1.274,1.274,0,0,0,1.8,0l4.837-4.812H24.071a8.906,8.906,0,0,0,7.908-4.783l5.873-11.2a1.271,1.271,0,0,0-.037-1.253Zm0,0" transform="translate(0 -220.511)" fill="#e5a812"/>
  </g>
</svg>
