<svg id="smile" xmlns="http://www.w3.org/2000/svg" width="38" height="38" viewBox="0 0 38 38">
  <path id="Path_17" data-name="Path 17" d="M19,0A19,19,0,1,0,38,19,19,19,0,0,0,19,0Zm3.983,12.25h0a6.172,6.172,0,0,1,8.728,0,1.113,1.113,0,1,1-1.574,1.575,3.945,3.945,0,0,0-5.58,0,1.113,1.113,0,0,1-1.575-1.574Zm-16.694,0h0a6.172,6.172,0,0,1,8.728,0,1.113,1.113,0,0,1-1.574,1.575,3.945,3.945,0,0,0-5.58,0A1.113,1.113,0,1,1,6.288,12.25ZM19,32.186A13.038,13.038,0,0,1,5.962,19.148a1.113,1.113,0,0,1,1.113-1.113H30.925a1.113,1.113,0,0,1,1.113,1.113A13.038,13.038,0,0,1,19,32.186Zm0,0" fill="#e5a812"/>
  <path id="Path_18" data-name="Path 18" d="M121.845,282.7A10.807,10.807,0,0,0,132.6,273H111.09A10.807,10.807,0,0,0,121.845,282.7Zm0,0" transform="translate(-102.845 -252.738)" fill="#e5a812"/>
</svg>
