<svg xmlns="http://www.w3.org/2000/svg" width="38.69" height="45.476" viewBox="0 0 38.69 45.476">
  <g id="XMLID_1438_" transform="translate(-34.33)">
    <circle id="XMLID_1440_" cx="3.743" cy="3.743" r="3.743" transform="translate(39.79 0)" fill="#e5a812"/>
    <path id="XMLID_1442_" d="M52.3,108.4h-.315v-1.63a1.805,1.805,0,0,0,.72-1.449L52.64,92.054A4.283,4.283,0,0,0,48.366,87.8h-1.9c-.237.618-1.934,5.186-2.188,5.849l.528-2.487a.744.744,0,0,0-.076-.513L44,89.333l.644-1.142a.262.262,0,0,0-.23-.389H42.649a.262.262,0,0,0-.23.389l.644,1.142-.728,1.323a.744.744,0,0,0-.078.5l.462,2.491c-.231-.591-1.866-5.207-2.117-5.849H38.67A4.283,4.283,0,0,0,34.4,92.055l-.067,13.268a1.806,1.806,0,0,0,1.8,1.815h.009a1.806,1.806,0,0,0,1.806-1.8l.067-13.268a.349.349,0,0,1,.7,0v30.358a2.167,2.167,0,1,0,4.334,0V105.577a.468.468,0,0,1,.936,0v16.855a2.167,2.167,0,1,0,4.334,0v-3.691c-.025-.793.015-11.08,0-12,0-3.386-.038.075-.039-14.659a.378.378,0,0,1,.756-.007l.067,13.268a1.815,1.815,0,0,0,.788,1.482V108.4h-.305a.744.744,0,0,0-.744.744v7.187a.744.744,0,0,0,.744.744H52.3a.744.744,0,0,0,.744-.744v-7.187A.745.745,0,0,0,52.3,108.4Z" transform="translate(0 -79.123)" fill="#e5a812"/>
    <circle id="XMLID_1445_" cx="3.743" cy="3.743" r="3.743" transform="translate(59.764 0)" fill="#e5a812"/>
    <path id="XMLID_1446_" d="M254.366,108.4h-.315v-1.63a1.805,1.805,0,0,0,.72-1.449L254.7,92.054A4.283,4.283,0,0,0,250.43,87.8h-1.9c-.237.618-1.934,5.186-2.188,5.849l.528-2.487a.744.744,0,0,0-.076-.513l-.725-1.318.644-1.142a.262.262,0,0,0-.23-.389h-1.769a.262.262,0,0,0-.23.389l.644,1.142-.728,1.323a.744.744,0,0,0-.078.5l.462,2.491c-.23-.591-1.866-5.207-2.117-5.849h-1.932a4.283,4.283,0,0,0-4.274,4.252l-.067,13.268a1.806,1.806,0,0,0,1.8,1.815h.009a1.806,1.806,0,0,0,1.806-1.8l.067-13.268a.349.349,0,0,1,.7,0v30.358a2.167,2.167,0,1,0,4.334,0V105.577a.468.468,0,0,1,.936,0v16.855a2.167,2.167,0,1,0,4.334,0v-3.691c-.028-1-.028-10.8,0-12,0-3.386-.038.075-.039-14.659a.378.378,0,0,1,.756-.007l.067,13.268a1.815,1.815,0,0,0,.788,1.482V108.4h-.305a.744.744,0,0,0-.744.744v7.187a.744.744,0,0,0,.744.744h2.724a.744.744,0,0,0,.744-.744v-7.187A.745.745,0,0,0,254.366,108.4Z" transform="translate(-182.091 -79.123)" fill="#e5a812"/>
  </g>
</svg>
